ffmpeg started on 2025-06-27 at 10:33:12
Report written to "D:\Convert\FFMetrics\reports\ssim_report-6.txt"
Log level: 32
Command line:
ffmpeg -hide_banner -nostdin -i "G:\\\xc0\xed\xe8\xec\xe5\\[\xd2\xee\xef-4]\\\xd2\xee\xea\xe8\xe9\xf1\xea\xe8\xe9 \xc3\xf3\xeb\xfc\\\xd2\xc2-4\\Tokyo_Ghoul_Re_[23]_[AniLibria_TV]_[HDTVRip_720p]_HEVC.mkv" -i "G:\\\xc0\xed\xe8\xec\xe5\\[\xd2\xee\xef-4]\\\xd2\xee\xea\xe8\xe9\xf1\xea\xe8\xe9 \xc3\xf3\xeb\xfc\\\xd2\xc2-4\\Tokyo_Ghoul_Re_[23]_[AniLibria_TV]_[HDTVRip_720p].mkv" -lavfi "[0:v]settb=AVTB,setpts=PTS-STARTPTS,format=pix_fmts=yuv420p10,fps=24000/1001,scale=1280:720:flags=bicubic[main];[1:v]settb=AVTB,setpts=PTS-STARTPTS,format=pix_fmts=yuv420p,fps=24000/1001,scale=1280:720:flags=bicubic[ref];[main][ref]ssim=eof_action=endall:stats_file='D\\:/Convert/FFMetrics/logs/ssim_logfile-6.txt'" -f null -
Input #0, matroska,webm, from 'G:\Аниме\[Топ-4]\Токийский Гуль\ТВ-4\Tokyo_Ghoul_Re_[23]_[AniLibria_TV]_[HDTVRip_720p]_HEVC.mkv':
  Metadata:
    ENCODER         : Lavf61.7.100
  Duration: 00:24:30.10, start: -0.021000, bitrate: 666 kb/s
  Stream #0:0(jpn): Video: hevc (Main 10), yuv420p10le(tv, bt709, progressive), 1280x720 [SAR 1:1 DAR 16:9], 23.98 fps, 23.98 tbr, 1k tbn (default)
      Metadata:
        ENCODER         : Lavc61.19.100 libx265
        BPS             : 467973
        DURATION        : 00:24:29.968708333
        NUMBER_OF_FRAMES: 35244
        NUMBER_OF_BYTES : 85988247
        _STATISTICS_WRITING_APP: mkvpropedit v66.0.0 ('Josie') 64-bit
        _STATISTICS_WRITING_DATE_UTC: 2025-06-26 16:43:00
        _STATISTICS_TAGS: BPS DURATION NUMBER_OF_FRAMES NUMBER_OF_BYTES
  Stream #0:1(rus): Audio: aac (LC), 48000 Hz, stereo, fltp (default) (forced)
      Metadata:
        title           : AniLibria.TV
        ENCODER         : Lavc61.19.100 aac
        BPS             : 194277
        DURATION        : 00:24:30.079000000
        NUMBER_OF_FRAMES: 68911
        NUMBER_OF_BYTES : 35700428
        _STATISTICS_WRITING_APP: mkvpropedit v66.0.0 ('Josie') 64-bit
        _STATISTICS_WRITING_DATE_UTC: 2025-06-26 16:43:00
        _STATISTICS_TAGS: BPS DURATION NUMBER_OF_FRAMES NUMBER_OF_BYTES
  Stream #0:2(rus): Subtitle: ass (ssa) (default) (forced)
      Metadata:
        title           : Надписи
        BPS             : 22
        DURATION        : 00:23:40.730000000
        NUMBER_OF_FRAMES: 53
        NUMBER_OF_BYTES : 4051
        _STATISTICS_WRITING_APP: mkvpropedit v66.0.0 ('Josie') 64-bit
        _STATISTICS_WRITING_DATE_UTC: 2025-06-26 16:43:00
        _STATISTICS_TAGS: BPS DURATION NUMBER_OF_FRAMES NUMBER_OF_BYTES
  Stream #0:3(rus): Subtitle: ass (ssa)
      Metadata:
        title           : Полные
        BPS             : 97
        DURATION        : 00:23:56.680000000
        NUMBER_OF_FRAMES: 257
        NUMBER_OF_BYTES : 17509
        _STATISTICS_WRITING_APP: mkvpropedit v66.0.0 ('Josie') 64-bit
        _STATISTICS_WRITING_DATE_UTC: 2025-06-26 16:43:00
        _STATISTICS_TAGS: BPS DURATION NUMBER_OF_FRAMES NUMBER_OF_BYTES
[matroska,webm @ 00000123a99406c0] Could not find codec parameters for stream 18 (Attachment: none): unknown codec
Consider increasing the value for the 'analyzeduration' (0) and 'probesize' (5000000) options
Input #1, matroska,webm, from 'G:\Аниме\[Топ-4]\Токийский Гуль\ТВ-4\Tokyo_Ghoul_Re_[23]_[AniLibria_TV]_[HDTVRip_720p].mkv':
  Metadata:
    encoder         : libebml v1.4.2 + libmatroska v1.6.4
    creation_time   : 2024-12-27T09:50:53.000000Z
  Duration: 00:24:30.08, start: 0.000000, bitrate: 2121 kb/s
  Stream #1:0(jpn): Video: h264 (Main), yuv420p(tv, bt709, progressive), 1280x720, SAR 1:1 DAR 16:9, 23.98 fps, 23.98 tbr, 1k tbn (default)
      Metadata:
        BPS             : 1915274
        DURATION        : 00:24:29.969000000
        NUMBER_OF_FRAMES: 35244
        NUMBER_OF_BYTES : 351924224
        _STATISTICS_WRITING_APP: mkvmerge v66.0.0 ('Josie') 64-bit
        _STATISTICS_WRITING_DATE_UTC: 2024-12-27 09:50:53
        _STATISTICS_TAGS: BPS DURATION NUMBER_OF_FRAMES NUMBER_OF_BYTES
  Stream #1:1(rus): Audio: aac (LC), 48000 Hz, stereo, fltp (default) (forced)
      Metadata:
        title           : AniLibria.TV
        BPS             : 192093
        DURATION        : 00:24:30.079000000
        NUMBER_OF_FRAMES: 68910
        NUMBER_OF_BYTES : 35299008
        _STATISTICS_WRITING_APP: mkvmerge v66.0.0 ('Josie') 64-bit
        _STATISTICS_WRITING_DATE_UTC: 2024-12-27 09:50:53
        _STATISTICS_TAGS: BPS DURATION NUMBER_OF_FRAMES NUMBER_OF_BYTES
  Stream #1:2(rus): Subtitle: ass (ssa) (default) (forced)
      Metadata:
        title           : Надписи
        BPS             : 22
        DURATION        : 00:23:40.730000000
        NUMBER_OF_FRAMES: 53
        NUMBER_OF_BYTES : 4051
        _STATISTICS_WRITING_APP: mkvmerge v66.0.0 ('Josie') 64-bit
        _STATISTICS_WRITING_DATE_UTC: 2024-12-27 09:50:53
        _STATISTICS_TAGS: BPS DURATION NUMBER_OF_FRAMES NUMBER_OF_BYTES
  Stream #1:3(rus): Subtitle: ass (ssa)
      Metadata:
        title           : Полные
        BPS             : 97
        DURATION        : 00:23:56.680000000
        NUMBER_OF_FRAMES: 257
        NUMBER_OF_BYTES : 17509
        _STATISTICS_WRITING_APP: mkvmerge v66.0.0 ('Josie') 64-bit
        _STATISTICS_WRITING_DATE_UTC: 2024-12-27 09:50:53
        _STATISTICS_TAGS: BPS DURATION NUMBER_OF_FRAMES NUMBER_OF_BYTES
  Stream #1:4: Attachment: ttf
      Metadata:
        filename        : 10322__2.ttf
        mimetype        : application/x-truetype-font
  Stream #1:5: Attachment: ttf
      Metadata:
        filename        : 10352__0.ttf
        mimetype        : application/x-truetype-font
  Stream #1:6: Attachment: ttf
      Metadata:
        filename        : Aero Matics Display Bold Italic.ttf
        mimetype        : application/x-truetype-font
  Stream #1:7: Attachment: ttf
      Metadata:
        filename        : Aero Matics Display Bold.ttf
        mimetype        : application/x-truetype-font
  Stream #1:8: Attachment: ttf
      Metadata:
        filename        : Aero Matics Display Italic.ttf
        mimetype        : application/x-truetype-font
  Stream #1:9: Attachment: ttf
      Metadata:
        filename        : Aero Matics Display Light Italic.ttf
        mimetype        : application/x-truetype-font
  Stream #1:10: Attachment: ttf
      Metadata:
        filename        : Aero Matics Display Light.ttf
        mimetype        : application/x-truetype-font
  Stream #1:11: Attachment: ttf
      Metadata:
        filename        : Aero_Matics_Display_Regular.ttf
        mimetype        : application/x-truetype-font
  Stream #1:12: Attachment: ttf
      Metadata:
        filename        : BenchNine-Regular.ttf
        mimetype        : application/x-truetype-font
  Stream #1:13: Attachment: ttf
      Metadata:
        filename        : ObelixPro (Regular).ttf
        mimetype        : application/x-truetype-font
  Stream #1:14: Attachment: ttf
      Metadata:
        filename        : OHCRBRG.TTF
        mimetype        : application/x-truetype-font
  Stream #1:15: Attachment: ttf
      Metadata:
        filename        : OpenSanA.ttf
        mimetype        : application/x-truetype-font
  Stream #1:16: Attachment: ttf
      Metadata:
        filename        : Passing Notes.ttf
        mimetype        : application/x-truetype-font
  Stream #1:17: Attachment: ttf
      Metadata:
        filename        : REDOCTOB.otf
        mimetype        : application/x-truetype-font
  Stream #1:18: Attachment: none
      Metadata:
        filename        : simsun_0.ttc
        mimetype        : application/octet-stream
  Stream #1:19: Attachment: ttf
      Metadata:
        filename        : Snowstorm.ttf
        mimetype        : application/x-truetype-font
  Stream #1:20: Attachment: ttf
      Metadata:
        filename        : TEMPSITC.TTF
        mimetype        : application/x-truetype-font
  Stream #1:21: Attachment: ttf
      Metadata:
        filename        : TrajanPro3-Bold.otf
        mimetype        : application/x-truetype-font
  Stream #1:22: Attachment: ttf
      Metadata:
        filename        : TrajanPro3-Regular.otf
        mimetype        : application/x-truetype-font
  Stream #1:23: Attachment: ttf
      Metadata:
        filename        : v_BloodyMurder BB_v1.0.ttf
        mimetype        : application/x-truetype-font
  Stream #1:24: Attachment: ttf
      Metadata:
        filename        : v_CCTimSale_v1.11.ttf
        mimetype        : application/x-truetype-font
  Stream #1:25: Attachment: ttf
      Metadata:
        filename        : v_HolyMackerelli_v1.9.ttf
        mimetype        : application/x-truetype-font
  Stream #1:26: Attachment: ttf
      Metadata:
        filename        : v_StraightJacketBB_v1.1.ttf
        mimetype        : application/x-truetype-font
  Stream #1:27: Attachment: ttf
      Metadata:
        filename        : XENI.TTF
        mimetype        : application/x-truetype-font
Stream mapping:
  Stream #0:0 (hevc) -> settb:default
  Stream #1:0 (h264) -> settb:default
  ssim:default -> Stream #0:0 (wrapped_avframe)
  Stream #0:1 -> #0:1 (aac (native) -> pcm_s16le (native))
Output #0, null, to 'pipe:':
  Metadata:
    encoder         : Lavf61.7.100
  Stream #0:0: Video: wrapped_avframe, yuv420p10le(tv, bt709, progressive), 1280x720 [SAR 1:1 DAR 16:9], q=2-31, 200 kb/s, 23.98 fps, 23.98 tbn
      Metadata:
        encoder         : Lavc61.19.100 wrapped_avframe
  Stream #0:1(rus): Audio: pcm_s16le, 48000 Hz, stereo, s16, 1536 kb/s (default) (forced)
      Metadata:
        title           : AniLibria.TV
        _STATISTICS_TAGS: BPS DURATION NUMBER_OF_FRAMES NUMBER_OF_BYTES
        BPS             : 194277
        DURATION        : 00:24:30.079000000
        NUMBER_OF_FRAMES: 68911
        NUMBER_OF_BYTES : 35700428
        _STATISTICS_WRITING_APP: mkvpropedit v66.0.0 ('Josie') 64-bit
        _STATISTICS_WRITING_DATE_UTC: 2025-06-26 16:43:00
        encoder         : Lavc61.19.100 pcm_s16le
frame=  402 fps=0.0 q=-0.0 size=N/A time=00:00:16.76 bitrate=N/A speed=32.3x    frame=  911 fps=884 q=-0.0 size=N/A time=00:00:37.99 bitrate=N/A speed=36.9x    frame= 1329 fps=853 q=-0.0 size=N/A time=00:00:55.43 bitrate=N/A speed=35.6x    frame= 1700 fps=822 q=-0.0 size=N/A time=00:01:10.90 bitrate=N/A speed=34.3x    frame= 2078 fps=806 q=-0.0 size=N/A time=00:01:26.66 bitrate=N/A speed=33.6x    frame= 2511 fps=809 q=-0.0 size=N/A time=00:01:44.72 bitrate=N/A speed=33.7x    frame= 3007 fps=832 q=-0.0 size=N/A time=00:02:05.41 bitrate=N/A speed=34.7x    frame= 3521 fps=854 q=-0.0 size=N/A time=00:02:26.85 bitrate=N/A speed=35.6x    frame= 4030 fps=867 q=-0.0 size=N/A time=00:02:48.08 bitrate=N/A speed=36.1x    frame= 4548 fps=881 q=-0.0 size=N/A time=00:03:09.68 bitrate=N/A speed=36.7x    frame= 4977 fps=878 q=-0.0 size=N/A time=00:03:27.58 bitrate=N/A speed=36.6x    frame= 5540 fps=894 q=-0.0 size=N/A time=00:03:51.06 bitrate=N/A speed=37.3x    frame= 6073 fps=905 q=-0.0 size=N/A time=00:04:13.29 bitrate=N/A speed=37.8x    frame= 6590 fps=913 q=-0.0 size=N/A time=00:04:34.85 bitrate=N/A speed=38.1x    frame= 7096 fps=917 q=-0.0 size=N/A time=00:04:55.96 bitrate=N/A speed=38.2x    frame= 7584 fps=920 q=-0.0 size=N/A time=00:05:16.31 bitrate=N/A speed=38.4x    frame= 8090 fps=922 q=-0.0 size=N/A time=00:05:37.42 bitrate=N/A speed=38.5x    frame= 8584 fps=925 q=-0.0 size=N/A time=00:05:58.06 bitrate=N/A speed=38.6x    frame= 9083 fps=927 q=-0.0 size=N/A time=00:06:18.83 bitrate=N/A speed=38.7x    frame= 9596 fps=930 q=-0.0 size=N/A time=00:06:40.23 bitrate=N/A speed=38.8x    frame=10057 fps=929 q=-0.0 size=N/A time=00:06:59.46 bitrate=N/A speed=38.7x    frame=10526 fps=927 q=-0.0 size=N/A time=00:07:19.02 bitrate=N/A speed=38.7x    frame=11059 fps=933 q=-0.0 size=N/A time=00:07:41.25 bitrate=N/A speed=38.9x    frame=11519 fps=930 q=-0.0 size=N/A time=00:08:00.43 bitrate=N/A speed=38.8x    frame=11919 fps=925 q=-0.0 size=N/A time=00:08:17.12 bitrate=N/A speed=38.6x    frame=12383 fps=923 q=-0.0 size=N/A time=00:08:36.47 bitrate=N/A speed=38.5x    frame=12812 fps=920 q=-0.0 size=N/A time=00:08:54.36 bitrate=N/A speed=38.4x    frame=13332 fps=923 q=-0.0 size=N/A time=00:09:16.05 bitrate=N/A speed=38.5x    frame=13843 fps=925 q=-0.0 size=N/A time=00:09:37.36 bitrate=N/A speed=38.6x    frame=14310 fps=925 q=-0.0 size=N/A time=00:09:56.84 bitrate=N/A speed=38.6x    frame=14761 fps=923 q=-0.0 size=N/A time=00:10:15.65 bitrate=N/A speed=38.5x    frame=15290 fps=927 q=-0.0 size=N/A time=00:10:37.72 bitrate=N/A speed=38.6x    frame=15842 fps=931 q=-0.0 size=N/A time=00:11:00.74 bitrate=N/A speed=38.8x    frame=16331 fps=931 q=-0.0 size=N/A time=00:11:21.13 bitrate=N/A speed=38.8x    frame=16823 fps=932 q=-0.0 size=N/A time=00:11:41.65 bitrate=N/A speed=38.9x    frame=17255 fps=930 q=-0.0 size=N/A time=00:11:59.67 bitrate=N/A speed=38.8x    frame=17800 fps=933 q=-0.0 size=N/A time=00:12:22.40 bitrate=N/A speed=38.9x    frame=18313 fps=934 q=-0.0 size=N/A time=00:12:43.80 bitrate=N/A speed=  39x    frame=18790 fps=935 q=-0.0 size=N/A time=00:13:03.69 bitrate=N/A speed=  39x    frame=19266 fps=934 q=-0.0 size=N/A time=00:13:23.55 bitrate=N/A speed=38.9x    frame=19674 fps=931 q=-0.0 size=N/A time=00:13:40.56 bitrate=N/A speed=38.8x    frame=19990 fps=923 q=-0.0 size=N/A time=00:13:53.74 bitrate=N/A speed=38.5x    frame=20542 fps=926 q=-0.0 size=N/A time=00:14:16.77 bitrate=N/A speed=38.6x    frame=21042 fps=927 q=-0.0 size=N/A time=00:14:37.62 bitrate=N/A speed=38.7x    frame=21520 fps=928 q=-0.0 size=N/A time=00:14:57.56 bitrate=N/A speed=38.7x    frame=21832 fps=920 q=-0.0 size=N/A time=00:15:10.57 bitrate=N/A speed=38.4x    frame=22259 fps=918 q=-0.0 size=N/A time=00:15:28.38 bitrate=N/A speed=38.3x    frame=22741 fps=918 q=-0.0 size=N/A time=00:15:48.48 bitrate=N/A speed=38.3x    frame=23119 fps=915 q=-0.0 size=N/A time=00:16:04.25 bitrate=N/A speed=38.2x    frame=23543 fps=913 q=-0.0 size=N/A time=00:16:21.93 bitrate=N/A speed=38.1x    frame=24076 fps=915 q=-0.0 size=N/A time=00:16:44.16 bitrate=N/A speed=38.2x    frame=24621 fps=918 q=-0.0 size=N/A time=00:17:06.90 bitrate=N/A speed=38.3x    frame=25204 fps=922 q=-0.0 size=N/A time=00:17:31.21 bitrate=N/A speed=38.5x    frame=25617 fps=920 q=-0.0 size=N/A time=00:17:48.44 bitrate=N/A speed=38.4x    frame=26048 fps=919 q=-0.0 size=N/A time=00:18:06.41 bitrate=N/A speed=38.3x    frame=26452 fps=916 q=-0.0 size=N/A time=00:18:23.26 bitrate=N/A speed=38.2x    frame=26947 fps=917 q=-0.0 size=N/A time=00:18:43.91 bitrate=N/A speed=38.2x    frame=27303 fps=913 q=-0.0 size=N/A time=00:18:58.76 bitrate=N/A speed=38.1x    frame=27704 fps=910 q=-0.0 size=N/A time=00:19:15.48 bitrate=N/A speed=  38x    frame=28149 fps=910 q=-0.0 size=N/A time=00:19:34.04 bitrate=N/A speed=37.9x    frame=28654 fps=911 q=-0.0 size=N/A time=00:19:55.11 bitrate=N/A speed=  38x    frame=29216 fps=914 q=-0.0 size=N/A time=00:20:18.55 bitrate=N/A speed=38.1x    frame=29764 fps=916 q=-0.0 size=N/A time=00:20:41.40 bitrate=N/A speed=38.2x    frame=30303 fps=918 q=-0.0 size=N/A time=00:21:03.88 bitrate=N/A speed=38.3x    frame=30876 fps=921 q=-0.0 size=N/A time=00:21:27.78 bitrate=N/A speed=38.4x    frame=31405 fps=923 q=-0.0 size=N/A time=00:21:49.85 bitrate=N/A speed=38.5x    frame=31923 fps=924 q=-0.0 size=N/A time=00:22:11.45 bitrate=N/A speed=38.5x    frame=32392 fps=924 q=-0.0 size=N/A time=00:22:31.01 bitrate=N/A speed=38.5x    frame=32821 fps=922 q=-0.0 size=N/A time=00:22:48.90 bitrate=N/A speed=38.5x    frame=33190 fps=920 q=-0.0 size=N/A time=00:23:04.29 bitrate=N/A speed=38.4x    frame=33592 fps=917 q=-0.0 size=N/A time=00:23:21.06 bitrate=N/A speed=38.3x    frame=33967 fps=915 q=-0.0 size=N/A time=00:23:36.70 bitrate=N/A speed=38.2x    frame=34434 fps=915 q=-0.0 size=N/A time=00:23:56.18 bitrate=N/A speed=38.2x    frame=34993 fps=917 q=-0.0 size=N/A time=00:24:19.49 bitrate=N/A speed=38.2x    [Parsed_ssim_10 @ 00000123a9e030c0] SSIM Y:0.990321 (20.141501) U:0.993355 (21.774969) V:0.993587 (21.929213) All:0.991371 (20.640218)
[out#0/null @ 00000123a955bec0] video:15144KiB audio:275644KiB subtitle:0KiB other streams:0KiB global headers:0KiB muxing overhead: unknown
frame=35244 fps=919 q=-0.0 Lsize=N/A time=00:24:29.96 bitrate=N/A speed=38.3x    
